<svg xmlns="http://www.w3.org/2000/svg" width="256" height="256" viewBox="0 0 256 256" fill="none">
  <defs>
    <linearGradient id="tri" x1="0" y1="0" x2="0" y2="1">
      <stop offset="0" stop-color="#FF9933"/>
      <stop offset="0.52" stop-color="#FFFFFF"/>
      <stop offset="1" stop-color="#138808"/>
    </linearGradient>
    <filter id="shadow" x="-50%" y="-50%" width="200%" height="200%" color-interpolation-filters="sRGB">
      <feDropShadow dx="0" dy="10" stdDeviation="10" flood-color="#0b1220" flood-opacity="0.25"/>
    </filter>
  </defs>

  <rect x="20" y="20" width="216" height="216" rx="60" fill="url(#tri)" filter="url(#shadow)"/>

  <!-- Rocket mark -->
  <g transform="translate(128 128) rotate(-20) translate(-128 -128)">
    <path d="M145 60c-10 3-20 13-25 24-10 22-10 52-9 74l-20 20c-3 3-3 7 0 10l4 4c3 3 7 3 10 0l20-20c22 1 52 1 74-9 11-5 21-15 24-25-10-2-22-8-33-19s-17-23-19-33Z" fill="#0B1220" opacity="0.92"/>
    <path d="M140 80c-4 6-3 14 3 20 6 6 14 7 20 3-2-7-6-13-11-18-5-5-11-9-12-5Z" fill="#FFFFFF" opacity="0.85"/>
    <circle cx="165" cy="105" r="10" fill="#0B1220" opacity="0.92"/>
    <circle cx="165" cy="105" r="6" fill="#2C7CFF" opacity="0.95"/>

    <!-- flame -->
    <path d="M84 176c12-2 23-10 31-18 3-3 6-2 7 2 3 10 2 22-6 31-9 10-22 12-32 8 0-8 0-16 0-23Z" fill="#FF6A00"/>
    <path d="M92 184c8-2 15-7 20-12 2-2 4-1 5 1 1 7 0 14-5 20-6 7-14 8-21 6 0-5 0-10 1-15Z" fill="#FF9933"/>
  </g>
</svg>
